<svg id="Layer_3" enable-background="new 0 0 64 64" viewBox="0 0 64 64" xmlns="http://www.w3.org/2000/svg"><g><path d="m25 29h-4c-.552 0-1 .447-1 1v8.332c-1.82.898-3 2.758-3 4.83v12.838c0 1.654 1.346 3 3 3h6c1.654 0 3-1.346 3-3v-12.838c0-2.072-1.18-3.932-3-4.83v-8.332c0-.553-.448-1-1-1zm-1 2v2h-2v-2zm3 14v6h-8v-6zm-1 12h-6c-.551 0-1-.448-1-1v-3h8v3c0 .552-.449 1-1 1zm.987-14h-7.974c.067-1.392.97-2.606 2.304-3.052.408-.136.683-.517.683-.948v-4h2v4c0 .431.275.812.684.948 1.333.446 2.236 1.66 2.303 3.052z"/><path d="m61.39 9.024 1.317-1.317-1.414-1.414-2.995 2.995c-.002.002-.003.003-.005.005l-1.331 1.331c-.193-2.028-1.885-3.624-3.962-3.624-.624 0-1.207.156-1.734.412.299-1.722.847-3.402 1.628-4.964l-1.789-.895c-.678 1.357-1.198 2.794-1.552 4.271-.304-.751-.757-1.441-1.347-2.031-1.156-1.156-2.693-1.793-4.327-1.793h-.879c-.552 0-1 .447-1 1v.879c0 1.636.637 3.173 1.793 4.329.064.064.137.117.204.177-.534.613-.878 1.384-.959 2.238l-1.328-1.327c-.001-.001-.002-.002-.003-.003l-3-3-1.414 1.414 1.317 1.317c-.112.08-.219.17-.318.269-.94.941-.94 2.473 0 3.414.912.912 2.503.912 3.415 0 .1-.1.188-.206.267-.318l.818.818c-1.613.515-2.792 2.011-2.792 3.793h-5v-4c0-6.617-5.383-12-12-12s-12 5.383-12 12v4h-9c-.552 0-1 .447-1 1v44c0 .553.448 1 1 1h42c.552 0 1-.447 1-1v-33h-2v32h-40v-42h8v2.142c-1.72.447-3 1.999-3 3.858 0 2.206 1.794 4 4 4s4-1.794 4-4c0-1.859-1.28-3.411-3-3.858v-2.142h20v2.142c-1.72.447-3 1.999-3 3.858 0 2.206 1.794 4 4 4s4-1.794 4-4c0-1.859-1.28-3.411-3-3.858v-2.142h5.556c.626 1.074 1.729 1.82 3.023 1.957-.359.6-.579 1.294-.579 2.043 0 2.062 1.574 3.744 3.579 3.957-.359.6-.579 1.294-.579 2.043 0 2.206 1.794 4 4 4s4-1.794 4-4c0-.749-.22-1.443-.579-2.043 2.005-.213 3.579-1.895 3.579-3.957 0-.749-.22-1.443-.579-2.043 2.005-.213 3.579-1.895 3.579-3.957 0-1.782-1.179-3.278-2.792-3.793l.818-.818c.079.112.167.219.267.318.912.912 2.503.912 3.415 0 .94-.941.94-2.473 0-3.414-.1-.099-.206-.189-.318-.269zm-47.39 15.976c0 1.103-.897 2-2 2s-2-.897-2-2c0-.737.405-1.375 1-1.722v1.722h2v-1.722c.595.347 1 .985 1 1.722zm22 0c0 1.103-.897 2-2 2s-2-.897-2-2c0-.737.405-1.375 1-1.722v1.722h2v-1.722c.595.347 1 .985 1 1.722zm-23-8v-4c0-5.514 4.486-10 10-10s10 4.486 10 10v4zm34-8c1.103 0 2 .897 2 2s-.897 2-2 2-2-.897-2-2 .897-2 2-2zm3 10c-1.103 0-2-.897-2-2s.897-2 2-2 2 .897 2 2-.897 2-2 2zm3-10c1.103 0 2 .897 2 2s-.897 2-2 2-2-.897-2-2 .897-2 2-2zm-6.207-3.793c.53.53.882 1.183 1.063 1.89-.276-.06-.562-.097-.856-.097-.447 0-.87.091-1.272.227-.184-.131-.36-.273-.521-.434-.75-.749-1.175-1.736-1.205-2.791 1.041.032 2.052.467 2.791 1.205zm-4.793 11.793c0-1.103.897-2 2-2s2 .897 2 2-.897 2-2 2-2-.897-2-2zm3 6c0-1.103.897-2 2-2s2 .897 2 2-.897 2-2 2-2-.897-2-2zm5 8c-1.103 0-2-.897-2-2s.897-2 2-2 2 .897 2 2-.897 2-2 2zm3-6c-1.103 0-2-.897-2-2s.897-2 2-2 2 .897 2 2-.897 2-2 2zm5-8c0 1.103-.897 2-2 2s-2-.897-2-2 .897-2 2-2 2 .897 2 2z"/></g></svg>